<svg width="1087" height="1087" viewBox="0 0 1087 1087" fill="none" xmlns="http://www.w3.org/2000/svg">
<path fillRule="evenodd" clipRule="evenodd" d="M130 0C58.2031 0 0 58.2031 0 130V697C0 768.797 58.2031 827 130 827H362.758C409.768 977.651 550.365 1087 716.5 1087C921.121 1087 1087 921.121 1087 716.5C1087 550.364 977.65 409.769 827 362.758V130C827 58.2031 768.797 0 697 0H130ZM827 362.758C792.102 351.868 754.986 346 716.5 346C511.879 346 346 511.879 346 716.5C346 754.986 351.867 792.102 362.758 827H671C757.156 827 827 757.156 827 671V362.758Z" fill="black"/>
</svg>
